<mxfile host="app.diagrams.net" agent="Mozilla/5.0 (X11; Linux x86_64; rv:139.0) Gecko/20100101 Firefox/139.0" version="27.2.0">
  <diagram name="Page-1" id="8Min_9AImeZkpHFbkxUr">
    <mxGraphModel dx="1188" dy="653" grid="1" gridSize="10" guides="1" tooltips="1" connect="1" arrows="1" fold="1" page="1" pageScale="1" pageWidth="1100" pageHeight="850" math="0" shadow="0">
      <root>
        <mxCell id="0" />
        <mxCell id="1" parent="0" />
        <mxCell id="9tnvsFXUcFOkCyatVr4T-3" value="" style="edgeStyle=orthogonalEdgeStyle;rounded=0;orthogonalLoop=1;jettySize=auto;html=1;" parent="1" source="9tnvsFXUcFOkCyatVr4T-16" target="9tnvsFXUcFOkCyatVr4T-2" edge="1">
          <mxGeometry relative="1" as="geometry">
            <mxPoint x="120" y="200" as="sourcePoint" />
          </mxGeometry>
        </mxCell>
        <mxCell id="9tnvsFXUcFOkCyatVr4T-5" value="" style="rounded=0;orthogonalLoop=1;jettySize=auto;html=1;exitX=1;exitY=0.25;exitDx=0;exitDy=0;entryX=0;entryY=0.75;entryDx=0;entryDy=0;" parent="1" source="9tnvsFXUcFOkCyatVr4T-2" target="9tnvsFXUcFOkCyatVr4T-4" edge="1">
          <mxGeometry relative="1" as="geometry" />
        </mxCell>
        <mxCell id="9tnvsFXUcFOkCyatVr4T-7" style="rounded=0;orthogonalLoop=1;jettySize=auto;html=1;entryX=0;entryY=0.25;entryDx=0;entryDy=0;exitX=1;exitY=0.75;exitDx=0;exitDy=0;" parent="1" source="9tnvsFXUcFOkCyatVr4T-2" target="9tnvsFXUcFOkCyatVr4T-6" edge="1">
          <mxGeometry relative="1" as="geometry" />
        </mxCell>
        <mxCell id="9tnvsFXUcFOkCyatVr4T-2" value="Classifier" style="rounded=1;whiteSpace=wrap;html=1;fillColor=#f8cecc;strokeColor=#b85450;" parent="1" vertex="1">
          <mxGeometry x="160" y="170" width="120" height="60" as="geometry" />
        </mxCell>
        <mxCell id="9tnvsFXUcFOkCyatVr4T-9" value="" style="rounded=0;orthogonalLoop=1;jettySize=auto;html=1;exitX=1;exitY=0.25;exitDx=0;exitDy=0;entryX=-0.008;entryY=0.867;entryDx=0;entryDy=0;entryPerimeter=0;" parent="1" source="9tnvsFXUcFOkCyatVr4T-4" target="9tnvsFXUcFOkCyatVr4T-8" edge="1">
          <mxGeometry relative="1" as="geometry" />
        </mxCell>
        <mxCell id="9tnvsFXUcFOkCyatVr4T-11" style="rounded=0;orthogonalLoop=1;jettySize=auto;html=1;entryX=0;entryY=0.25;entryDx=0;entryDy=0;exitX=1;exitY=0.75;exitDx=0;exitDy=0;" parent="1" source="9tnvsFXUcFOkCyatVr4T-4" target="9tnvsFXUcFOkCyatVr4T-10" edge="1">
          <mxGeometry relative="1" as="geometry" />
        </mxCell>
        <mxCell id="9tnvsFXUcFOkCyatVr4T-4" value="&lt;div&gt;Extractor1&lt;/div&gt;&lt;div&gt;(e.g. graph-diagram)&lt;/div&gt;" style="rounded=1;whiteSpace=wrap;html=1;fillColor=#dae8fc;strokeColor=#6c8ebf;" parent="1" vertex="1">
          <mxGeometry x="320" y="100" width="120" height="60" as="geometry" />
        </mxCell>
        <mxCell id="9tnvsFXUcFOkCyatVr4T-6" value="&lt;div&gt;Extractor2&lt;/div&gt;&lt;div&gt;(e.g. class-diagram)&lt;/div&gt;" style="rounded=1;whiteSpace=wrap;html=1;fillColor=#dae8fc;strokeColor=#6c8ebf;" parent="1" vertex="1">
          <mxGeometry x="320" y="240" width="120" height="60" as="geometry" />
        </mxCell>
        <mxCell id="9tnvsFXUcFOkCyatVr4T-13" value="" style="edgeStyle=orthogonalEdgeStyle;rounded=0;orthogonalLoop=1;jettySize=auto;html=1;" parent="1" source="9tnvsFXUcFOkCyatVr4T-8" target="9tnvsFXUcFOkCyatVr4T-12" edge="1">
          <mxGeometry relative="1" as="geometry" />
        </mxCell>
        <mxCell id="9tnvsFXUcFOkCyatVr4T-8" value="Transducer1-1&lt;div&gt;(e.g. Mermaid)&lt;/div&gt;" style="rounded=1;whiteSpace=wrap;html=1;fillColor=#d5e8d4;strokeColor=#82b366;" parent="1" vertex="1">
          <mxGeometry x="480" y="20" width="120" height="60" as="geometry" />
        </mxCell>
        <mxCell id="9tnvsFXUcFOkCyatVr4T-15" value="" style="edgeStyle=orthogonalEdgeStyle;rounded=0;orthogonalLoop=1;jettySize=auto;html=1;" parent="1" source="9tnvsFXUcFOkCyatVr4T-10" target="9tnvsFXUcFOkCyatVr4T-14" edge="1">
          <mxGeometry relative="1" as="geometry" />
        </mxCell>
        <mxCell id="9tnvsFXUcFOkCyatVr4T-10" value="Transducer1-2&lt;div&gt;(e.g. D2)&lt;/div&gt;" style="rounded=1;whiteSpace=wrap;html=1;fillColor=#d5e8d4;strokeColor=#82b366;" parent="1" vertex="1">
          <mxGeometry x="480" y="160" width="120" height="60" as="geometry" />
        </mxCell>
        <mxCell id="9tnvsFXUcFOkCyatVr4T-12" value="Mermaid compiler" style="rounded=1;whiteSpace=wrap;html=1;fillColor=#e1d5e7;strokeColor=#9673a6;" parent="1" vertex="1">
          <mxGeometry x="640" y="20" width="120" height="60" as="geometry" />
        </mxCell>
        <mxCell id="9tnvsFXUcFOkCyatVr4T-14" value="D2 compiler" style="rounded=1;whiteSpace=wrap;html=1;fillColor=#e1d5e7;strokeColor=#9673a6;" parent="1" vertex="1">
          <mxGeometry x="640" y="160" width="120" height="60" as="geometry" />
        </mxCell>
        <mxCell id="9tnvsFXUcFOkCyatVr4T-16" value="&lt;div&gt;Hand-written&lt;/div&gt;&lt;div&gt;input image&lt;/div&gt;" style="sketch=0;outlineConnect=0;fontColor=#232F3E;gradientColor=none;fillColor=#ED7100;strokeColor=none;dashed=0;verticalLabelPosition=bottom;verticalAlign=top;align=center;html=1;fontSize=12;fontStyle=0;aspect=fixed;pointerEvents=1;shape=mxgraph.aws4.container_registry_image;" parent="1" vertex="1">
          <mxGeometry x="50" y="176" width="48" height="48" as="geometry" />
        </mxCell>
        <mxCell id="9tnvsFXUcFOkCyatVr4T-19" value="" style="strokeWidth=2;html=1;shape=mxgraph.flowchart.annotation_2;align=left;labelPosition=right;pointerEvents=1;rotation=-180;" parent="1" vertex="1">
          <mxGeometry x="780" y="48" width="50" height="154" as="geometry" />
        </mxCell>
        <mxCell id="9tnvsFXUcFOkCyatVr4T-20" value="&lt;span&gt;Graph diagram&lt;/span&gt;" style="image;sketch=0;aspect=fixed;html=1;points=[];align=center;fontSize=12;image=img/lib/mscae/Resource_Graph_Explorer.svg;labelBackgroundColor=none;" parent="1" vertex="1">
          <mxGeometry x="860" y="100" width="49" height="50" as="geometry" />
        </mxCell>
      </root>
    </mxGraphModel>
  </diagram>
</mxfile>
